{"title":"Katyn.2007.DVDRIP-ZEKTORM","uid":4749894,"size":737463581,"categoryP":"video","categoryS":"movies","magnet":"?xt=urn:btih:e2d423d6f9a556724fbc49238a63c0dd4dfa7f36&amp;dn=Katyn.2007.DVDRIP-ZEKTORM&amp;tr=udp%3A%2F%2Ftracker.openbittorrent.com%3A80&amp;tr=udp%3A%2F%2Fopen.demonii.com%3A1337&amp;tr=udp%3A%2F%2Ftracker.coppersurfer.tk%3A6969&amp;tr=udp%3A%2F%2Fexodus.desync.com%3A6969","seeders":1,"leechers":1,"uploader":"blowley","files":4,"time":1236118069,"description":"Title                            : Katyn\nYear                             : 2007\nGenre                            : Drama | History | War\niMDB Rate                        : User Rating: 7.1/10   2,422 votes\niMDB URL                         : http://www.imdb.com/title/tt0879843/\nAwards                           : Nominated for Oscar. Another 11 wins\n\nComplete name                    : Katyn.2007.DVDRIP-ZEKTORM.mp4\nFormat                           : MPEG-4\nFormat profile                   : Base Media\nCodec ID                         : isom\nFile size                        : 700 MiB\nDuration                         : 2h 2mn\nOverall bit rate                 : 802 Kbps\nSubtitles                        : English (Format: VobSub)\nSource                           : DVD NTSC\nEncoded date                     : UTC 2009-03-02 20:05:48\n\nVideo\nFormat                           : AVC\nFormat/Info                      : Advanced Video Codec\nFormat profile                   : &lt;a class=&quot;__cf_email__&quot; href=&quot;/cdn-cgi/l/email-protection&quot; data-cfemail=&quot;f3bb9a949bb3bfc7ddc2&quot;&gt;[email&amp;#160;protected]&lt;/a&gt;&lt;script cf-hash='f9e31' type=&quot;text/javascript&quot;&gt;\n/* &lt;![CDATA[ */!function(){try{var t=&quot;currentScript&quot;in document?document.currentScript:function(){for(var t=document.getElementsByTagName(&quot;script&quot;),e=t.length;e--;)if(t[e].getAttribute(&quot;cf-hash&quot;))return t[e]}();if(t&amp;&amp;t.previousSibling){var e,r,n,i,c=t.previousSibling,a=c.getAttribute(&quot;data-cfemail&quot;);if(a){for(e=&quot;&quot;,r=parseInt(a.substr(0,2),16),n=2;a.length-n;n+=2)i=parseInt(a.substr(n,2),16)^r,e+=String.fromCharCode(i);e=document.createTextNode(e),c.parentNode.replaceChild(e,c)}}}catch(u){}}();/* ]]&gt; */&lt;/script&gt;\nFormat settings, CABAC           : Yes\nFormat settings, ReFrames        : 10 frames\nCodec ID                         : avc1\nCodec ID/Info                    : Advanced Video Coding\nDuration                         : 2h 2mn\nBit rate mode                    : Variable\nBit rate                         : 715 Kbps\nMaximum bit rate                 : 5846 Kbps\nWidth                            : 720 pixels\nHeight                           : 480 pixels\nDisplay aspect ratio             : 16/9\nFrame rate mode                  : Constant\nFrame rate                       : 23.976 fps\nStandard                         : NTSC\nResolution                       : 24 bits\nColorimetry                      : 4:2:0\nScan type                        : Progressive\nBits/(Pixel*Frame)               : 0.086\nStream size                      : 624 MiB (89%)\nTitle                            : Video\nWriting library                  : x264 core 60 r900 a9af942\n\nAudio\nFormat                           : AAC\nFormat/Info                      : Advanced Audio Codec\nFormat version                   : Version 4\nFormat profile                   : LC\nFormat settings, SBR             : Yes\nFormat settings, PS              : No\nCodec ID                         : 40\nDuration                         : 2h 2mn\nBit rate mode                    : Variable\nBit rate                         : 84.1 Kbps\nMaximum bit rate                 : 107 Kbps\nChannel(s)                       : 2 channels\nChannel positions                : L R\nSampling rate                    : 48.0 KHz\nResolution                       : 16 bits\nStream size                      : 73.4 MiB (10%)\nTitle                            : Polish\nLanguage                         : Polish\n","torrent":{"xt":"urn:btih:e2d423d6f9a556724fbc49238a63c0dd4dfa7f36","amp;dn":"Katyn.2007.DVDRIP-ZEKTORM","amp;tr":["udp%3A%2F%2Ftracker.openbittorrent.com%3A80","udp%3A%2F%2Fopen.demonii.com%3A1337","udp%3A%2F%2Ftracker.coppersurfer.tk%3A6969","udp%3A%2F%2Fexodus.desync.com%3A6969"],"infoHash":"e2d423d6f9a556724fbc49238a63c0dd4dfa7f36","infoHashBuffer":{"type":"Buffer","data":[226,212,35,214,249,165,86,114,79,188,73,35,138,99,192,221,77,250,127,54]},"announce":[],"urlList":[]}}